<svg xmlns="http://www.w3.org/2000/svg" xmlns:xlink="http://www.w3.org/1999/xlink" width="2000" zoomAndPan="magnify" viewBox="0 0 1500 1499.999933" height="2000" preserveAspectRatio="xMidYMid meet" version="1.0"><defs><g/><clipPath id="9fec664226"><path d="M 259 677 L 299 677 L 299 805.769531 L 259 805.769531 Z M 259 677 " clip-rule="nonzero"/></clipPath><clipPath id="7d83e6ef88"><path d="M 442 598.769531 L 530 598.769531 L 530 805.769531 L 442 805.769531 Z M 442 598.769531 " clip-rule="nonzero"/></clipPath><clipPath id="5410dd7051"><path d="M 313 677 L 439 677 L 439 805.769531 L 313 805.769531 Z M 313 677 " clip-rule="nonzero"/></clipPath><clipPath id="09b3fbaf34"><path d="M 676 677 L 872 677 L 872 805.769531 L 676 805.769531 Z M 676 677 " clip-rule="nonzero"/></clipPath><clipPath id="9355f15fac"><path d="M 1025 628 L 1123 628 L 1123 805.769531 L 1025 805.769531 Z M 1025 628 " clip-rule="nonzero"/></clipPath><clipPath id="177e24c2c6"><path d="M 1123 677 L 1245 677 L 1245 805.769531 L 1123 805.769531 Z M 1123 677 " clip-rule="nonzero"/></clipPath><clipPath id="8ed44ae506"><path d="M 529 675 L 667 675 L 667 805.769531 L 529 805.769531 Z M 529 675 " clip-rule="nonzero"/></clipPath><clipPath id="218cc4fa3f"><path d="M 882 677 L 1014 677 L 1014 805.769531 L 882 805.769531 Z M 882 677 " clip-rule="nonzero"/></clipPath><clipPath id="8541d04fcc"><path d="M 1080 853 L 1111 853 L 1111 892.660156 L 1080 892.660156 Z M 1080 853 " clip-rule="nonzero"/></clipPath><clipPath id="7948100717"><path d="M 1145 840.160156 L 1157 840.160156 L 1157 851 L 1145 851 Z M 1145 840.160156 " clip-rule="nonzero"/></clipPath><clipPath id="de48560f58"><path d="M 1211 851 L 1237.429688 851 L 1237.429688 883 L 1211 883 Z M 1211 851 " clip-rule="nonzero"/></clipPath><clipPath id="a791513258"><path d="M 38 14 L 72 14 L 72 60.121094 L 38 60.121094 Z M 38 14 " clip-rule="nonzero"/></clipPath><clipPath id="6f0bf2e4e5"><rect x="0" width="73" y="0" height="61"/></clipPath></defs><path fill="#000000" d="M 278.824219 667.671875 C 291.792969 667.671875 302.292969 657.589844 302.292969 645.164062 C 302.292969 632.742188 291.960938 622.449219 278.824219 622.449219 C 265.6875 622.449219 255.605469 632.65625 255.605469 645.164062 C 255.605469 657.675781 266.023438 667.671875 278.824219 667.671875 Z M 278.824219 667.671875 " fill-opacity="1" fill-rule="nonzero"/><g clip-path="url(#9fec664226)"><path fill="#000000" d="M 259.078125 677.421875 L 298.363281 677.421875 L 298.363281 805.6875 L 259.078125 805.6875 Z M 259.078125 677.421875 " fill-opacity="1" fill-rule="nonzero"/></g><g clip-path="url(#7d83e6ef88)"><path fill="#000000" d="M 526.449219 632.867188 L 529.878906 632.867188 L 529.878906 598.769531 L 525.277344 598.769531 C 485.199219 598.769531 463.109375 619.4375 463.109375 656.964844 L 463.109375 677.421875 L 442.777344 677.421875 L 442.777344 713.105469 L 463.109375 713.105469 L 463.109375 805.730469 L 502.101562 805.730469 L 502.101562 713.105469 L 529.042969 713.105469 L 529.042969 677.421875 L 502.101562 677.421875 L 502.101562 658.429688 C 502.101562 641.734375 510.507812 632.90625 526.449219 632.90625 Z M 526.449219 632.867188 " fill-opacity="1" fill-rule="nonzero"/></g><g clip-path="url(#5410dd7051)"><path fill="#000000" d="M 407.59375 683.402344 C 398.222656 679.429688 387.765625 677.421875 376.386719 677.421875 C 365.003906 677.421875 354.464844 679.429688 345.050781 683.402344 C 335.636719 687.378906 328.023438 693.359375 322.375 701.140625 C 316.769531 708.921875 313.925781 718.671875 313.925781 730.050781 L 313.925781 805.6875 L 353.332031 805.6875 L 353.332031 739.085938 C 353.332031 721.933594 360.863281 713.609375 376.34375 713.609375 C 391.824219 713.609375 399.101562 721.933594 399.101562 739.085938 L 399.101562 805.6875 L 438.511719 805.6875 L 438.511719 730.050781 C 438.511719 718.671875 435.664062 708.964844 430.058594 701.140625 C 424.453125 693.359375 416.882812 687.378906 407.550781 683.402344 Z M 407.59375 683.402344 " fill-opacity="1" fill-rule="nonzero"/></g><g clip-path="url(#09b3fbaf34)"><path fill="#000000" d="M 865.230469 700.136719 C 860.714844 692.984375 854.355469 687.417969 846.28125 683.527344 C 838.207031 679.636719 828.667969 677.671875 817.875 677.671875 C 808.210938 677.671875 799.675781 679.261719 792.4375 682.441406 C 785.242188 685.578125 779.261719 690.265625 774.65625 696.246094 C 770.222656 690.433594 764.242188 685.828125 756.878906 682.566406 C 749.515625 679.304688 740.8125 677.671875 730.980469 677.671875 C 720.230469 677.671875 710.648438 679.636719 702.449219 683.527344 C 694.292969 687.417969 687.890625 692.984375 683.375 700.136719 C 678.855469 707.292969 676.597656 715.910156 676.597656 725.78125 L 676.597656 805.6875 L 715 805.6875 L 715 737.035156 C 715 721.433594 721.316406 713.816406 734.328125 713.816406 C 748.300781 713.816406 755.078125 722.519531 755.078125 740.425781 L 755.078125 805.648438 L 793.484375 805.648438 L 793.484375 740.425781 C 793.484375 731.847656 795.242188 725.15625 798.714844 720.636719 C 802.1875 716.117188 807.5 713.816406 814.445312 713.816406 C 827.285156 713.816406 833.519531 721.433594 833.519531 737.035156 L 833.519531 805.6875 L 871.925781 805.6875 L 871.925781 725.78125 C 871.925781 715.910156 869.625 707.25 865.105469 700.136719 Z M 865.230469 700.136719 " fill-opacity="1" fill-rule="nonzero"/></g><g clip-path="url(#9355f15fac)"><path fill="#000000" d="M 1091.894531 628.683594 L 1048.597656 628.683594 L 1048.597656 677.378906 L 1025.167969 677.378906 L 1025.167969 713.191406 L 1048.050781 713.191406 L 1048.050781 805.648438 L 1091.855469 805.648438 L 1091.855469 713.191406 L 1122.144531 713.191406 L 1122.144531 677.378906 L 1091.855469 677.378906 C 1091.855469 677.378906 1091.855469 632.488281 1091.855469 628.683594 Z M 1091.894531 628.683594 " fill-opacity="1" fill-rule="nonzero"/></g><g clip-path="url(#177e24c2c6)"><path fill="#000000" d="M 1162.847656 748.625 C 1162.847656 766.738281 1170.671875 775.777344 1186.402344 775.777344 C 1194.8125 775.777344 1201.171875 772.050781 1205.4375 764.648438 L 1242.878906 764.648438 C 1235.308594 791.882812 1216.441406 805.480469 1186.191406 805.480469 C 1176.90625 805.480469 1168.453125 803.972656 1160.714844 800.960938 C 1153.019531 797.949219 1146.40625 793.640625 1140.925781 788.074219 C 1135.445312 782.511719 1131.179688 775.859375 1128.210938 768.121094 C 1125.238281 760.378906 1123.691406 751.71875 1123.691406 742.140625 C 1123.691406 732.558594 1125.113281 723.3125 1127.957031 715.367188 C 1130.804688 707.417969 1134.859375 700.640625 1140.132812 695.074219 C 1145.402344 689.511719 1151.804688 685.203125 1159.292969 682.191406 C 1166.78125 679.179688 1175.230469 677.671875 1184.644531 677.671875 C 1194.058594 677.671875 1202.257812 679.179688 1209.664062 682.191406 C 1217.066406 685.203125 1223.34375 689.59375 1228.488281 695.285156 C 1233.632812 701.015625 1237.566406 708.003906 1240.246094 716.285156 C 1242.921875 724.570312 1244.300781 733.855469 1244.300781 744.230469 L 1244.300781 748.625 L 1162.765625 748.625 Z M 1208.242188 724.277344 C 1206.945312 718.417969 1204.308594 713.691406 1200.332031 710.136719 C 1196.359375 706.582031 1191.464844 704.78125 1185.773438 704.78125 C 1179.792969 704.78125 1174.898438 706.496094 1171.132812 709.886719 C 1167.367188 713.273438 1164.941406 718.085938 1163.976562 724.277344 L 1208.28125 724.277344 Z M 1208.242188 724.277344 " fill-opacity="1" fill-rule="nonzero"/></g><g clip-path="url(#8ed44ae506)"><path fill="#000000" d="M 609.785156 675.539062 L 609.785156 710.679688 C 621.414062 715.113281 629.238281 726.285156 629.238281 740.046875 C 629.238281 758.164062 615.933594 771.800781 598.28125 771.800781 C 580.625 771.800781 567.070312 758.164062 567.070312 740.046875 C 567.070312 726.367188 574.894531 715.242188 586.523438 710.722656 L 586.523438 675.582031 C 553.976562 680.769531 529.921875 707.332031 529.921875 740.300781 C 529.921875 776.949219 559.917969 805.6875 598.238281 805.6875 C 636.558594 805.6875 666.304688 776.949219 666.304688 740.300781 C 666.304688 707.25 642.25 680.683594 609.699219 675.539062 Z M 609.785156 675.539062 " fill-opacity="1" fill-rule="nonzero"/></g><g clip-path="url(#218cc4fa3f)"><path fill="#000000" d="M 975.929688 677.421875 L 975.929688 757.285156 C 970.78125 766.53125 961.203125 772.472656 949.65625 772.472656 C 932.253906 772.472656 919.117188 759.125 919.117188 741.429688 C 919.117188 723.734375 932.253906 710.636719 949.65625 710.636719 C 950.867188 710.636719 952.039062 710.765625 953.210938 710.847656 L 953.210938 677.503906 C 952.039062 677.460938 950.828125 677.421875 949.65625 677.421875 C 912.171875 677.421875 882.800781 705.660156 882.800781 741.679688 C 882.800781 777.699219 912.171875 805.6875 949.65625 805.6875 C 959.027344 805.6875 967.894531 803.929688 975.929688 800.710938 L 975.929688 805.6875 L 1013.203125 805.6875 L 1013.203125 677.421875 Z M 975.929688 677.421875 " fill-opacity="1" fill-rule="nonzero"/></g><g clip-path="url(#8541d04fcc)"><path fill="#040000" d="M 1093.949219 853.980469 C 1096.253906 853.371094 1098.710938 853.570312 1100.976562 854.242188 C 1104.027344 855.148438 1106.71875 857.195312 1108.40625 859.882812 C 1110.566406 863.230469 1111.207031 867.441406 1110.402344 871.316406 C 1109.871094 874.386719 1108.304688 877.285156 1105.984375 879.378906 C 1103.222656 881.933594 1099.371094 883.214844 1095.625 883.007812 C 1094.386719 882.871094 1093.09375 882.742188 1091.96875 882.164062 C 1091.828125 880.796875 1091.953125 879.410156 1091.910156 878.035156 C 1091.910156 877.074219 1091.90625 876.121094 1091.925781 875.160156 C 1093.058594 875.792969 1094.3125 876.277344 1095.632812 876.238281 C 1097.929688 876.261719 1100.144531 875.023438 1101.464844 873.175781 C 1102.695312 871.527344 1103.125 869.402344 1102.988281 867.382812 C 1102.847656 865.144531 1101.660156 862.980469 1099.785156 861.71875 C 1098.410156 860.796875 1096.71875 860.347656 1095.0625 860.496094 C 1091.898438 860.605469 1089.230469 863.144531 1088.339844 866.070312 C 1087.945312 867.210938 1088.046875 868.429688 1088.042969 869.613281 C 1088.027344 875.289062 1088.082031 880.960938 1088.035156 886.636719 C 1088.007812 888.609375 1088.101562 890.585938 1088.015625 892.554688 C 1085.8125 892.746094 1083.589844 892.582031 1081.375 892.660156 C 1081.054688 892.652344 1080.417969 892.734375 1080.480469 892.242188 C 1080.460938 881.273438 1080.46875 870.304688 1080.472656 859.335938 C 1080.515625 857.695312 1080.355469 856.042969 1080.515625 854.410156 C 1082.96875 854.375 1085.414062 854.359375 1087.863281 854.398438 C 1088.078125 855.414062 1087.875 856.445312 1087.921875 857.46875 C 1089.570312 855.789062 1091.664062 854.550781 1093.953125 853.980469 Z M 1093.949219 853.980469 " fill-opacity="1" fill-rule="nonzero"/></g><path fill="#211e1f" d="M 989.292969 858.269531 C 988.234375 856.605469 986.746094 855.304688 984.863281 854.398438 C 982.976562 853.492188 980.746094 853.03125 978.230469 853.03125 C 975.972656 853.03125 973.976562 853.402344 972.292969 854.144531 C 970.609375 854.878906 969.210938 855.960938 968.140625 857.359375 C 967.101562 856.003906 965.707031 854.925781 963.988281 854.171875 C 962.265625 853.414062 960.230469 853.035156 957.9375 853.035156 C 955.421875 853.035156 953.183594 853.492188 951.277344 854.402344 C 949.375 855.308594 947.875 856.609375 946.816406 858.273438 C 945.761719 859.9375 945.230469 861.945312 945.230469 864.246094 L 945.230469 882.863281 L 954.207031 882.863281 L 954.207031 866.867188 C 954.207031 863.226562 955.683594 861.460938 958.722656 861.460938 C 961.984375 861.460938 963.570312 863.492188 963.570312 867.664062 L 963.570312 882.867188 L 972.546875 882.867188 L 972.546875 867.664062 C 972.546875 865.664062 972.960938 864.113281 973.773438 863.054688 C 974.582031 862 975.820312 861.460938 977.449219 861.460938 C 980.449219 861.460938 981.910156 863.230469 981.910156 866.867188 L 981.910156 882.863281 L 990.886719 882.863281 L 990.886719 864.246094 C 990.886719 861.945312 990.351562 859.929688 989.296875 858.273438 Z M 989.292969 858.269531 " fill-opacity="1" fill-rule="nonzero"/><path fill="#211e1f" d="M 1042.246094 841.621094 L 1032.132812 841.621094 L 1032.132812 852.972656 L 1026.660156 852.972656 L 1026.660156 861.316406 L 1032.003906 861.316406 L 1032.003906 882.855469 L 1042.242188 882.855469 L 1042.242188 861.316406 L 1049.316406 861.316406 L 1049.316406 852.972656 L 1042.242188 852.972656 C 1042.242188 852.972656 1042.230469 842.519531 1042.242188 841.621094 Z M 1042.246094 841.621094 " fill-opacity="1" fill-rule="nonzero"/><path fill="#211e1f" d="M 1058.828125 869.5625 C 1058.828125 873.777344 1060.660156 875.886719 1064.328125 875.886719 C 1066.296875 875.886719 1067.777344 875.023438 1068.777344 873.289062 L 1077.523438 873.289062 C 1075.753906 879.632812 1071.34375 882.804688 1064.277344 882.804688 C 1062.109375 882.804688 1060.128906 882.449219 1058.328125 881.75 C 1056.53125 881.046875 1054.988281 880.046875 1053.707031 878.75 C 1052.425781 877.453125 1051.433594 875.90625 1050.734375 874.105469 C 1050.035156 872.300781 1049.683594 870.289062 1049.683594 868.050781 C 1049.683594 865.8125 1050.015625 863.664062 1050.683594 861.808594 C 1051.351562 859.957031 1052.300781 858.378906 1053.53125 857.082031 C 1054.765625 855.785156 1056.253906 854.785156 1058.003906 854.082031 C 1059.757812 853.378906 1061.730469 853.027344 1063.929688 853.027344 C 1066.128906 853.027344 1068.046875 853.378906 1069.78125 854.082031 C 1071.515625 854.785156 1072.976562 855.804688 1074.179688 857.136719 C 1075.378906 858.46875 1076.296875 860.101562 1076.925781 862.03125 C 1077.554688 863.957031 1077.878906 866.128906 1077.878906 868.542969 L 1077.878906 869.570312 L 1058.832031 869.570312 Z M 1069.421875 863.890625 C 1069.125 862.519531 1068.507812 861.421875 1067.570312 860.59375 C 1066.636719 859.765625 1065.503906 859.351562 1064.171875 859.351562 C 1062.769531 859.351562 1061.628906 859.75 1060.746094 860.535156 C 1059.863281 861.328125 1059.304688 862.445312 1059.074219 863.890625 Z M 1069.421875 863.890625 " fill-opacity="1" fill-rule="nonzero"/><path fill="#211e1f" d="M 1014.617188 852.972656 L 1014.617188 871.582031 C 1013.417969 873.730469 1011.171875 875.121094 1008.484375 875.121094 C 1004.414062 875.121094 1001.347656 872.007812 1001.347656 867.882812 C 1001.347656 863.757812 1004.414062 860.707031 1008.484375 860.707031 C 1008.769531 860.707031 1009.042969 860.730469 1009.3125 860.761719 L 1009.3125 852.996094 C 1009.039062 852.980469 1008.761719 852.972656 1008.484375 852.972656 C 999.722656 852.972656 992.859375 859.546875 992.859375 867.945312 C 992.859375 876.34375 999.71875 882.859375 1008.484375 882.859375 C 1010.675781 882.859375 1012.746094 882.445312 1014.617188 881.695312 L 1014.617188 882.859375 L 1023.324219 882.859375 L 1023.324219 852.972656 Z M 1014.617188 852.972656 " fill-opacity="1" fill-rule="nonzero"/><g clip-path="url(#7948100717)"><path fill="#211e1f" d="M 1150.699219 850.699219 C 1153.726562 850.699219 1156.183594 848.347656 1156.183594 845.457031 C 1156.183594 842.566406 1153.773438 840.160156 1150.699219 840.160156 C 1147.621094 840.160156 1145.269531 842.539062 1145.269531 845.457031 C 1145.269531 848.375 1147.703125 850.699219 1150.699219 850.699219 Z M 1150.699219 850.699219 " fill-opacity="1" fill-rule="nonzero"/></g><path fill="#211e1f" d="M 1146.078125 852.976562 L 1155.253906 852.976562 L 1155.253906 882.855469 L 1146.078125 882.855469 Z M 1146.078125 852.976562 " fill-opacity="1" fill-rule="nonzero"/><path fill="#211e1f" d="M 1180.78125 854.363281 C 1178.59375 853.433594 1176.144531 852.964844 1173.488281 852.964844 C 1170.828125 852.964844 1168.367188 853.433594 1166.167969 854.363281 C 1163.964844 855.292969 1162.1875 856.679688 1160.875 858.496094 C 1159.5625 860.3125 1158.898438 862.578125 1158.898438 865.230469 L 1158.898438 882.859375 L 1168.109375 882.859375 L 1168.109375 867.34375 C 1168.109375 863.351562 1169.867188 861.410156 1173.484375 861.410156 C 1177.101562 861.410156 1178.800781 863.351562 1178.800781 867.34375 L 1178.800781 882.859375 L 1188.011719 882.859375 L 1188.011719 865.230469 C 1188.011719 862.582031 1187.347656 860.320312 1186.035156 858.496094 C 1184.726562 856.679688 1182.957031 855.292969 1180.773438 854.363281 Z M 1180.78125 854.363281 " fill-opacity="1" fill-rule="nonzero"/><path fill="#211e1f" d="M 1130.726562 852.753906 L 1130.726562 860.933594 C 1133.441406 861.972656 1135.273438 864.566406 1135.273438 867.777344 C 1135.273438 871.992188 1132.167969 875.167969 1128.046875 875.167969 C 1123.929688 875.167969 1120.757812 871.988281 1120.757812 867.777344 C 1120.757812 864.585938 1122.589844 861.996094 1125.304688 860.949219 L 1125.304688 852.761719 C 1117.707031 853.972656 1112.085938 860.160156 1112.085938 867.84375 C 1112.085938 876.382812 1119.097656 883.078125 1128.046875 883.078125 C 1137 883.078125 1143.949219 876.386719 1143.949219 867.84375 C 1143.949219 860.144531 1138.324219 853.949219 1130.730469 852.753906 Z M 1130.726562 852.753906 " fill-opacity="1" fill-rule="nonzero"/><path fill="#211e1f" d="M 1204.132812 841.707031 L 1194.019531 841.707031 L 1194.019531 853.058594 L 1188.546875 853.058594 L 1188.546875 861.40625 L 1193.890625 861.40625 L 1193.890625 882.941406 L 1204.128906 882.941406 L 1204.128906 861.40625 L 1211.203125 861.40625 L 1211.203125 853.058594 L 1204.128906 853.058594 C 1204.128906 853.058594 1204.117188 842.605469 1204.128906 841.707031 Z M 1204.132812 841.707031 " fill-opacity="1" fill-rule="nonzero"/><g clip-path="url(#de48560f58)"><path fill="#090808" d="M 1213.632812 857.921875 C 1215.003906 854.445312 1218.53125 852.234375 1222.132812 851.660156 C 1225.484375 851.171875 1229.007812 851.472656 1232.140625 852.8125 C 1233.84375 853.652344 1235.488281 854.648438 1236.914062 855.914062 C 1235.210938 857.808594 1233.597656 859.777344 1231.914062 861.6875 C 1230.3125 860.257812 1228.578125 858.753906 1226.367188 858.46875 C 1224.878906 858.273438 1223.039062 858.363281 1222.039062 859.636719 C 1221.496094 860.507812 1222.058594 861.628906 1222.945312 861.996094 C 1226.167969 863.5 1229.898438 863.664062 1232.976562 865.519531 C 1234.90625 866.652344 1236.5625 868.5 1236.941406 870.761719 C 1237.472656 873.414062 1236.914062 876.351562 1235.167969 878.464844 C 1233.785156 880.175781 1231.847656 881.398438 1229.75 882.03125 C 1225.910156 883.210938 1221.671875 883.054688 1217.941406 881.585938 C 1215.75 880.738281 1213.910156 879.253906 1212.042969 877.875 C 1211.964844 877.714844 1211.816406 877.402344 1211.746094 877.246094 C 1212.3125 876.847656 1212.777344 876.332031 1213.21875 875.804688 C 1214.363281 874.421875 1215.8125 873.296875 1216.796875 871.777344 C 1218.878906 873.648438 1221.304688 875.464844 1224.214844 875.640625 C 1225.726562 875.78125 1227.40625 875.222656 1228.246094 873.90625 C 1228.652344 872.675781 1227.363281 871.859375 1226.394531 871.46875 C 1222.628906 870.144531 1218.269531 869.710938 1215.277344 866.824219 C 1212.851562 864.59375 1212.652344 860.886719 1213.640625 857.925781 Z M 1213.632812 857.921875 " fill-opacity="1" fill-rule="nonzero"/></g><g transform="matrix(1, 0, 0, 1, 861, 837)"><g clip-path="url(#6f0bf2e4e5)"><g fill="#000000" fill-opacity="1"><g transform="translate(0.838814, 46.125776)"><g><path d="M 5.234375 -41.484375 L 18.125 -41.484375 C 23.625 -41.484375 27.796875 -40.707031 30.640625 -39.15625 C 33.492188 -37.601562 34.921875 -34.875 34.921875 -30.96875 C 34.921875 -28.601562 34.367188 -26.609375 33.265625 -24.984375 C 32.160156 -23.359375 30.582031 -22.367188 28.53125 -22.015625 L 28.53125 -21.734375 C 29.882812 -21.421875 31.128906 -20.925781 32.265625 -20.25 C 33.410156 -19.570312 34.3125 -18.570312 34.96875 -17.25 C 35.625 -15.9375 35.953125 -14.195312 35.953125 -12.03125 C 35.953125 -8.269531 34.585938 -5.320312 31.859375 -3.1875 C 29.128906 -1.0625 25.421875 0 20.734375 0 L 5.234375 0 Z M 14 -25.03125 L 19.109375 -25.03125 C 21.671875 -25.03125 23.441406 -25.425781 24.421875 -26.21875 C 25.410156 -27.019531 25.90625 -28.210938 25.90625 -29.796875 C 25.90625 -31.390625 25.320312 -32.535156 24.15625 -33.234375 C 23 -33.929688 21.160156 -34.28125 18.640625 -34.28125 L 14 -34.28125 Z M 14 -18.0625 L 14 -7.265625 L 19.75 -7.265625 C 22.382812 -7.265625 24.222656 -7.773438 25.265625 -8.796875 C 26.316406 -9.828125 26.84375 -11.191406 26.84375 -12.890625 C 26.84375 -14.441406 26.304688 -15.691406 25.234375 -16.640625 C 24.171875 -17.585938 22.25 -18.0625 19.46875 -18.0625 Z M 14 -18.0625 "/></g></g></g><g clip-path="url(#a791513258)"><g fill="#000000" fill-opacity="1"><g transform="translate(38.125717, 46.125776)"><g><path d="M 0 -31.71875 L 9.46875 -31.71875 L 15.453125 -13.890625 C 15.765625 -12.992188 15.992188 -12.097656 16.140625 -11.203125 C 16.296875 -10.316406 16.414062 -9.367188 16.5 -8.359375 L 16.671875 -8.359375 C 16.785156 -9.367188 16.9375 -10.316406 17.125 -11.203125 C 17.320312 -12.097656 17.578125 -12.992188 17.890625 -13.890625 L 23.765625 -31.71875 L 33.0625 -31.71875 L 19.640625 4.0625 C 18.398438 7.351562 16.632812 9.820312 14.34375 11.46875 C 12.0625 13.113281 9.410156 13.9375 6.390625 13.9375 C 5.378906 13.9375 4.523438 13.890625 3.828125 13.796875 C 3.128906 13.703125 2.507812 13.597656 1.96875 13.484375 L 1.96875 6.625 C 2.363281 6.695312 2.867188 6.769531 3.484375 6.84375 C 4.109375 6.925781 4.75 6.96875 5.40625 6.96875 C 7.226562 6.96875 8.660156 6.414062 9.703125 5.3125 C 10.742188 4.207031 11.535156 2.882812 12.078125 1.34375 L 12.609375 -0.234375 Z M 0 -31.71875 "/></g></g></g></g></g></g></svg>