<svg width="276" height="44" viewBox="0 0 276 44" fill="none" xmlns="http://www.w3.org/2000/svg">
<path d="M215.105 34.543C212.429 34.543 210.252 36.6778 210.252 39.2992C210.252 41.9206 212.429 44.0003 215.105 44.0003C217.78 44.0003 220.013 41.8914 220.013 39.2992C220.013 36.707 217.858 34.543 215.105 34.543Z" fill="#F4F0EA"/>
<path d="M4.92713 14.6475C7.67377 14.6475 9.90602 12.503 9.90602 9.86535C9.90602 7.22768 7.71906 5.03125 4.92713 5.03125C2.1352 5.03125 0 7.20173 0 9.86535C0 12.529 2.2096 14.6475 4.92713 14.6475Z" fill="#F4F0EA"/>
<path d="M9.06488 16.7285H0.734375V44.0006H9.06488V16.7285Z" fill="#F4F0EA"/>
<path d="M210.252 16.1054C210.252 11.4562 214.002 7.90039 218.774 7.90039C220.207 7.90039 221.569 8.2086 222.863 8.75366L222.216 12.754C221.126 12.1732 220.068 11.865 219.045 11.865C216.49 11.865 214.749 13.7467 214.749 16.1021C214.749 18.4575 216.486 20.3393 219.078 20.3393C220.204 20.3393 221.294 19.9986 222.42 19.3822L222.999 23.3825C221.705 23.9989 220.307 24.3396 218.806 24.3396C213.966 24.3396 210.249 20.7513 210.249 16.1021L210.252 16.1054Z" fill="#F4F0EA"/>
<path d="M221.976 16.1378C221.976 11.4887 225.726 7.90039 230.533 7.90039C235.341 7.90039 239.055 11.4887 239.055 16.1378C239.055 20.787 235.341 24.3428 230.533 24.3428C225.726 24.3428 221.976 20.7545 221.976 16.1378ZM234.655 16.1054C234.655 13.711 232.882 11.9007 230.53 11.9007C228.178 11.9007 226.373 13.711 226.373 16.1054C226.373 18.4997 228.178 20.3425 230.53 20.3425C232.882 20.3425 234.655 18.4965 234.655 16.1054Z" fill="#F4F0EA"/>
<path d="M239.323 21.2993C239.323 19.6252 240.688 18.3242 242.426 18.3242C244.163 18.3242 245.493 19.622 245.493 21.2993C245.493 22.9766 244.131 24.2744 242.426 24.2744C240.721 24.2744 239.323 22.9766 239.323 21.2993Z" fill="#F4F0EA"/>
<path d="M261.856 14.3587V23.8971H257.188V14.9427C257.188 13.0285 256.062 11.9352 254.428 11.9352C252.691 11.9352 251.461 13.1648 251.461 15.1147V23.9004H246.825V8.6162L251.326 8.0679V9.91394C252.451 8.64864 254.085 7.93164 256.029 7.93164C259.711 7.93164 261.859 10.4266 261.859 14.3587H261.856Z" fill="#F4F0EA"/>
<path d="M269.08 20.0332H276L275.421 23.8972H261.856L269.287 12.1721H262.435L263.014 8.34375H275.207C275.728 8.34375 276.049 8.92125 275.77 9.36248L269.08 20.0332Z" fill="#F4F0EA"/>
<path d="M57.4271 7.25114H58.155V0H57.1812C48.6793 0 43.9948 4.39286 43.9948 12.3707V16.7182H39.6791V24.3067H43.9948V44H52.2606V24.3067H57.9738V16.7182H52.2606V12.6757C52.2606 9.12638 54.0464 7.25114 57.4271 7.25114Z" fill="#F4F0EA"/>
<path d="M32.2317 17.9938C30.2485 17.147 28.0227 16.7188 25.6125 16.7188C23.2024 16.7188 20.9669 17.147 18.9676 17.9938C16.9682 18.8406 15.3539 20.1091 14.1634 21.767C12.9761 23.4248 12.3711 25.4915 12.3711 27.9118V44.0006H20.7307V29.8389C20.7307 26.1955 22.3256 24.4241 25.6093 24.4241C28.893 24.4241 30.4361 26.1955 30.4361 29.8389V44.0006H38.7958V27.9118C38.7958 25.4947 38.194 23.4281 37.0035 21.767C35.8162 20.1091 34.2083 18.8406 32.2284 17.9938H32.2317Z" fill="#F4F0EA"/>
<path d="M129.27 21.5563C128.312 20.0379 126.96 18.8505 125.249 18.0232C123.537 17.1959 121.512 16.7773 119.228 16.7773C117.18 16.7773 115.369 17.118 113.838 17.7896C112.311 18.4612 111.043 19.4507 110.069 20.7257C109.128 19.4864 107.863 18.5066 106.3 17.8155C104.738 17.1245 102.891 16.7773 100.81 16.7773C98.5264 16.7773 96.4947 17.1959 94.7639 18.0232C93.0363 18.8505 91.6743 20.0379 90.7167 21.5563C89.7591 23.0746 89.2771 24.9077 89.2771 27.0101V44.0008H97.4232V29.4011C97.4232 26.0789 98.7625 24.4665 101.522 24.4665C104.482 24.4665 105.922 26.319 105.922 30.1279V44.0008H114.068V30.1279C114.068 28.3013 114.443 26.8835 115.181 25.9199C115.919 24.9564 117.041 24.4665 118.52 24.4665C121.244 24.4665 122.567 26.0822 122.567 29.4011V44.0008H130.713V27.0101C130.713 24.9077 130.228 23.0714 129.27 21.5563Z" fill="#F4F0EA"/>
<path d="M177.331 6.36133H168.153V16.7206H163.187V24.3383H168.037V43.9959H177.328V24.3383H183.75V16.7206H177.328C177.328 16.7206 177.322 7.17891 177.328 6.36133H177.331Z" fill="#F4F0EA"/>
<path d="M192.381 31.8623C192.381 35.7101 194.044 37.634 197.373 37.634C199.159 37.634 200.505 36.8456 201.411 35.2656H209.35C207.745 41.0536 203.74 43.9475 197.328 43.9475C195.361 43.9475 193.562 43.6263 191.928 42.9872C190.295 42.3448 188.894 41.4331 187.732 40.249C186.568 39.0648 185.668 37.6535 185.034 36.0086C184.4 34.3637 184.08 32.5241 184.08 30.4834C184.08 28.4427 184.381 26.4799 184.989 24.7863C185.594 23.0928 186.454 21.6555 187.574 20.4713C188.693 19.2872 190.045 18.3755 191.634 17.7331C193.222 17.0907 195.015 16.7695 197.011 16.7695C199.007 16.7695 200.747 17.0907 202.32 17.7331C203.892 18.3755 205.222 19.3034 206.312 20.52C207.402 21.7366 208.233 23.2258 208.806 24.9843C209.379 26.7427 209.67 28.725 209.67 30.9279V31.8655H192.384L192.381 31.8623ZM201.999 26.6843C201.728 25.4352 201.168 24.4327 200.32 23.6768C199.473 22.9208 198.444 22.5412 197.234 22.5412C195.963 22.5412 194.927 22.9046 194.125 23.6249C193.323 24.3484 192.815 25.3671 192.604 26.6843H201.996H201.999Z" fill="#F4F0EA"/>
<path d="M75.1007 16.3262V23.7947C77.5659 24.742 79.2288 27.1104 79.2288 30.0401C79.2288 33.8879 76.4077 36.7883 72.6679 36.7883C68.9281 36.7883 66.052 33.8879 66.052 30.0401C66.052 27.1266 67.7149 24.7648 70.1801 23.8077V16.3359C63.2827 17.4422 58.1809 23.0874 58.1809 30.0985C58.1809 37.8947 64.5444 44.0038 72.6679 44.0038C80.7913 44.0038 87.0999 37.8947 87.0999 30.0985C87.0999 23.0744 81.9948 17.4195 75.1007 16.3294V16.3262Z" fill="#F4F0EA"/>
<path d="M152.741 16.7207V33.7049C151.654 35.6678 149.616 36.9363 147.173 36.9363C143.482 36.9363 140.697 34.0975 140.697 30.3308C140.697 26.5641 143.482 23.7804 147.173 23.7804C147.432 23.7804 147.681 23.8031 147.927 23.8291V16.7402C147.678 16.7272 147.426 16.7207 147.173 16.7207C139.221 16.7207 132.994 22.7228 132.994 30.3859C132.994 38.0491 139.221 43.996 147.173 43.996C149.163 43.996 151.043 43.6197 152.741 42.9351V43.996H160.644V16.7207H152.741Z" fill="#F4F0EA"/>
</svg>
