<?xml version="1.0" encoding="UTF-8"?>
<svg id="_图层_1" data-name="图层 1" xmlns="http://www.w3.org/2000/svg" viewBox="0 0 4099.04 1280">
  <defs>
    <style>
      .cls-1 {
        fill: #686767;
      }

      .cls-2 {
        fill: #f9f9f9;
      }

      .cls-3 {
        fill: #656565;
      }

      .cls-4 {
        fill: #686868;
      }

      .cls-5 {
        fill: #666;
      }

      .cls-6 {
        fill: #676767;
      }
    </style>
  </defs>
  <path class="cls-3" d="M746,776h-113l-3-3v-216c0-4.57-4.14-20.9-5.93-26.07-12.9-37.28-63.19-45.77-92.12-21.98-16.29,13.39-22.62,33.66-24.03,53.97-3.99,57.59-1.99,129.38-2.01,188.18,0,8.38,5.73,18.33-.91,24.9h-112l-3-3v-214c0-12.17-10.44-37.73-19.22-46.78-25.1-25.88-78.62-21.43-95.14,12.42-1.83,3.76-7.64,21.22-7.64,24.36v227h-116v-265c0-7.2,7.84-31.29,11.03-38.97,33.2-79.74,139.28-99.56,214.96-77.03,29.1,8.67,51.04,24.75,71.28,46.84,4,.71,10.98-11.49,14.67-14.9,88.79-81.96,283.31-39.36,282.13,99.97l-.08,249.08Z"/>
  <path class="cls-3" d="M2064,678c21.36,7.9,37.05,14.59,60.78,11.78,117.69-13.92,111.88-222.88-29.56-205.56-36.83,4.51-77.35,48.38-81.24,84.76-8.41,78.61,6.26,171.94.1,252.1-3.6,20.45,1.34,41.06.02,62.01-.32,5.03-.87,22.74-6.9,22.81l-93.19-1.91v-497l3-3h93l1.01,38.01c6.65.51,12.2-9.14,17.16-12.84,57.06-42.73,128.62-46.7,190.44-10.78,133.51,77.59,115.25,298.14-31.56,349.66-36.68,12.87-87.6,15.99-123.05-1.05v-89Z"/>
  <path class="cls-3" d="M986,386v100c-76.68-5.67-124.77,69.29-93.41,138.41,25.61,56.47,106.65,69.29,149.4,24.57,1.98-2.07,14.02-18.76,14.02-19.98v-243h112v390h-112c-.15-4.79,1.58-10.73-3.05-14-114.83,46.93-258.91-20.98-278.32-147.62-20.1-131.11,82.49-233.18,211.37-228.37Z"/>
  <path class="cls-3" d="M3316,776h-118c-2.61-64.85,3.51-132.42-.02-196.98-.89-16.25-2.84-35.55-9.6-50.4-22.04-48.45-109.27-43.46-126.49,8.28-1.12,3.37-5.9,21.97-5.9,24.1v215h-115l-3.1-6.9c3.89-76.75-4.82-157.98.02-234.19,12.85-202.29,369.04-198.88,378.17,2l-.08,239.08Z"/>
  <path class="cls-3" d="M1639,602l-4.46,2.56c-5.52,6.94,3.49,39.66,7.7,48.2,21.77,44.11,98.05,45.35,117.76-.76h114c-11.65,60.76-59.82,109.55-121.55,119.45-149.24,23.93-252.01-63.53-238.42-216.42,10.27-115.62,100.83-181.88,214.73-166.78,96.1,12.74,147.45,89.85,151.33,182.67.39,9.23,1.79,23.91-3.08,31.08h-238ZM1770.01,527.96c-8.54-43.83-50.83-70.38-93.96-54.91-18.22,6.54-39.11,32.38-40.09,51.95-.21,4.2.01,2.58,2.98,3.02,6.52.96,15.01-.44,22.04,0,31.47,1.99,66.48,4.37,98.11,2.08,3.86-.28,7.26-1.13,10.92-2.14Z"/>
  <path class="cls-3" d="M2498,384v105c-11.77,9.23-23.78,14.59-34.05,25.95-49.64,54.89-18.47,152.32,57.26,160.84,114.45,12.88,146.91-141.64,48.79-186.79v-105c88.89,10.99,158.34,82.56,169.71,171.29,21.9,170.87-164.11,277.01-309.06,199.06-169.13-90.96-120-344.8,67.34-370.34Z"/>
  <path class="cls-3" d="M1508,386v108h-92v282h-132l-1.95-280.59c-5.06-5.55-12.29-1.13-17.04-1.43-16.43-1.05-33.02-3.4-49.76-1.87-.88-.24-3.25-6.58-3.25-7.12v-99h69l3-3v-147h129l3,3v144l3,3h89Z"/>
  <path class="cls-3" d="M3773.6,366.6c63.55-5.63,137.58,8.37,180.47,58.4l-63.33,74.88c-4.04,1.23-19.01-14.14-23.83-17.8-25.73-19.52-51.54-32.31-85-23.17-23.2,6.34-35.43,29.88-11.68,43.85,64.99,38.25,179.18,19.17,189.53,130.48,14.02,150.71-190.04,171.31-290.02,108.01-7.04-4.46-41.22-28.27-41.85-34.36-.7-6.85,56.91-61.78,63.46-72.72,5.13-1.34,12.53,9.25,16.84,12.62,28.16,21.98,70.57,45.16,106.91,33.31,27.42-8.94,38.32-33.12,9-49.22-23.07-12.66-66.2-18.79-93.14-28.86-146.76-54.82-96.29-223.14,42.64-235.44Z"/>
  <path class="cls-3" d="M3526,238v147l3,3h89v108h-92v282c-27.09,1.63-54.06-2.3-81.09-2.1-5.71.04-10.5,2.02-15.82,2.18-10.53.32-26.4,1.91-35.08-3.08v-279l-70-2v-106h70c-1.09-2.55,2-5.92,2-7v-143h130Z"/>
  <rect class="cls-5" x="2770" y="386" width="120" height="390"/>
  <path class="cls-3" d="M2883.29,240.71c28.79,30.73,22.03,81.77-13.91,103.68-37.49,22.86-96.92,6.82-107.68-39.09-17.35-74,71.81-117.73,121.59-64.59Z"/>
  <path class="cls-6" d="M3586,1072h-36v-67c0-1.83-5.6-12.86-7.99-14.01-6.99-3.34-20.25-2.1-24.93,5.08-1.21,1.86-5.07,11.55-5.07,12.93v63h-36v-67c0-13.55-21.92-21.34-31.4-12.38-1.22,1.16-6.6,11.46-6.6,12.38v67h-36v-75c0-6.69,4.76-17.53,8.95-23.05,19.45-25.55,60.97-23.98,84.05-3.88,22.7-21.89,74.38-21.58,87.44,10.48.62,1.53,3.56,11.77,3.56,12.44v79Z"/>
  <path class="cls-5" d="M2769,908c12.33,1.17,31.14,6.93,38.99,17.01,10.43,13.4,9.7,34.38.02,47.99-4.77,6.7-13.18,5.98-14,12.97,32.4,7.1,32.55,50.35,10.04,69.07-20.33,16.9-61.38,9.97-87.13,10.87-4.24.15-15.6,5.17-14.93-.85v-157.06c21.61,1.5,45.73-2.03,67.01,0ZM2737.28,936.28l-2.41,1.59,1,33.25c18.89,2.44,49.44,2.9,44.07-24.09-2.83-14.24-31.89-11.19-42.67-10.75ZM2769,998c-9.65-1.93-24.64,1.41-35,0v39l3,3h30c1.13,0,10.91-5.28,12.31-6.69,10.47-10.46,4.55-32.34-10.31-35.31Z"/>
  <path class="cls-6" d="M2862,946l25.02,80.01c3.98.81,2.91-1.47,3.88-4.02,9.44-24.76,14.26-52.31,26.1-76h33c.44,2.83-.26,5.32-.98,8.02-8.95,33.77-32.94,93.65-47.49,126.51-13.59,30.7-33.71,47.94-69.31,39.26l-.23-25.8c23.22,3.22,35-4.13,39.94-26.79l-45.93-121.2h36Z"/>
  <path class="cls-6" d="M3859.99,1022c-2.05,17.66,15.06,31.26,31.5,22.48,4.55-2.43,4.37-7.5,9.5-8.49,6.71-1.29,30.41-4.21,34.15,1.99-.93,18.53-20.17,34.68-38.06,36.08-14.32,1.12-40.59-1.53-52.08-10.07-33.06-24.54-28.41-88.9,11.01-104.98,45.22-18.45,91.8,15.86,78.12,64.12l-74.14-1.13ZM3862,998h35l2.82-4.76c-8.75-18.39-35.81-16.9-37.82,4.76Z"/>
  <path class="cls-6" d="M3662,954v32c-46.71-.76-37.88,68.72,6.06,57.05,6.72-1.79,15.11-8.88,16.04-15.95,2.99-22.65-3.69-50.02,1.89-73.11h30v118h-77c-6.42,0-25.81-14.28-29.87-20.13-31.06-44.79.21-97.87,52.87-97.87Z"/>
  <path class="cls-5" d="M3178,1072h-36v-63c0-18.7-23.85-27.77-37.05-15.05-1.93,1.86-6.95,11.27-6.95,13.05v65h-36c5.94-25.37-1.3-55.51,2.18-80.82,5.69-41.34,76.78-46.92,101.9-20.25,2.95,3.13,11.92,18.96,11.92,22.08v79Z"/>
  <path class="cls-5" d="M3318,954v31c0,1.55-16.53,8.92-18.06,23.97-5.53,54.27,78.18,38.48,54.49-10.39-2.9-5.98-14.42-12.59-14.42-13.58v-31c34.59,4.04,57.06,35.6,51.11,70.11-3.68,21.35-21.12,45.41-44.11,47.89-28.61,3.09-53.06,1.25-71-23.01-26.98-36.47-2.35-91.17,42-95Z"/>
  <path class="cls-5" d="M3264,880v32c-26.3.51-27.58,20.58-26.01,42.01h26.01s0,33.99,0,33.99c-8.29,1.15-19.64-3.01-26,3v81h-36v-84h-19.99c-.76-2.17,1.99-4.38,1.99-5v-29h18.01c-5.04-44.43,14.72-75.73,61.99-74Z"/>
  <path class="cls-4" d="M3794,954h26v34c-8.29,1.15-19.64-3.01-26,3v78l-3,3h-39v-81c-2.72-5.81-18.6-1.57-20.01-2.99l-2.02-32.98,22.03-1.03v-46h39l3,3v43Z"/>
  <polygon class="cls-1" points="3048 1072 3010 1072 3010 954 3045 954 3048 957 3048 1072"/>
  <path class="cls-4" d="M3025.53,902.37c18.16-2.21,32.59,17.89,21.58,33.74-15.29,22.01-46.92,2.58-40.22-18.22,1.93-5.98,12.27-14.75,18.64-15.52Z"/>
  <path class="cls-2" d="M1770.01,527.96c-3.66,1-7.06,1.86-10.92,2.14-31.64,2.29-66.64-.08-98.11-2.08-7.04-.45-15.52.95-22.04,0-2.97-.44-3.19,1.18-2.98-3.02.99-19.56,21.87-45.41,40.09-51.95,43.13-15.47,85.42,11.09,93.96,54.91Z"/>
</svg>