<svg xmlns="http://www.w3.org/2000/svg" xmlns:xlink="http://www.w3.org/1999/xlink" width="2000" zoomAndPan="magnify" viewBox="0 0 1500 1499.999933" height="2000" preserveAspectRatio="xMidYMid meet" version="1.0"><defs><g/><clipPath id="d9b487e392"><path d="M 713 676 L 817 676 L 817 809.183594 L 713 809.183594 Z M 713 676 " clip-rule="nonzero"/></clipPath><clipPath id="458b37b825"><path d="M 933 630.683594 L 971 630.683594 L 971 667 L 933 667 Z M 933 630.683594 " clip-rule="nonzero"/></clipPath><clipPath id="9f2c2939a2"><path d="M 998 821 L 1009 821 L 1009 852.871094 L 998 852.871094 Z M 998 821 " clip-rule="nonzero"/></clipPath><clipPath id="62384c4e06"><path d="M 1043 802.621094 L 1065 802.621094 L 1065 852.871094 L 1043 852.871094 Z M 1043 802.621094 " clip-rule="nonzero"/></clipPath><clipPath id="29c3e0202e"><path d="M 1012 821 L 1043 821 L 1043 852.871094 L 1012 852.871094 Z M 1012 821 " clip-rule="nonzero"/></clipPath><clipPath id="7f6f568874"><path d="M 1100 821 L 1149 821 L 1149 852.871094 L 1100 852.871094 Z M 1100 821 " clip-rule="nonzero"/></clipPath><clipPath id="c3fc67ec9d"><path d="M 1185 809 L 1210 809 L 1210 852.871094 L 1185 852.871094 Z M 1185 809 " clip-rule="nonzero"/></clipPath><clipPath id="837813f12c"><path d="M 1209 821 L 1240 821 L 1240 852.871094 L 1209 852.871094 Z M 1209 821 " clip-rule="nonzero"/></clipPath><clipPath id="a1ca07bc1f"><path d="M 1064 821 L 1099 821 L 1099 852.871094 L 1064 852.871094 Z M 1064 821 " clip-rule="nonzero"/></clipPath><clipPath id="72d357d9b2"><path d="M 1151 821 L 1183 821 L 1183 852.871094 L 1151 852.871094 Z M 1151 821 " clip-rule="nonzero"/></clipPath><clipPath id="f59814e339"><path d="M 38 14 L 72 14 L 72 60.199219 L 38 60.199219 Z M 38 14 " clip-rule="nonzero"/></clipPath><clipPath id="4bfc5e16f1"><rect x="0" width="73" y="0" height="61"/></clipPath></defs><g clip-path="url(#d9b487e392)"><path fill="#040000" d="M 759.460938 677.664062 C 767.269531 675.597656 775.605469 676.273438 783.28125 678.5625 C 793.628906 681.636719 802.746094 688.605469 808.46875 697.742188 C 815.796875 709.113281 817.964844 723.441406 815.234375 736.613281 C 813.433594 747.050781 808.125 756.902344 800.265625 764.027344 C 790.90625 772.710938 777.835938 777.070312 765.148438 776.359375 C 760.949219 775.898438 756.566406 775.453125 752.753906 773.496094 C 752.273438 768.84375 752.699219 764.128906 752.550781 759.449219 C 752.550781 756.191406 752.53125 752.941406 752.597656 749.683594 C 756.445312 751.832031 760.699219 753.476562 765.175781 753.347656 C 772.957031 753.421875 780.46875 749.210938 784.945312 742.925781 C 789.105469 737.324219 790.574219 730.105469 790.101562 723.238281 C 789.621094 715.621094 785.597656 708.265625 779.25 703.980469 C 774.578125 700.84375 768.847656 699.320312 763.238281 699.820312 C 752.511719 700.199219 743.460938 708.828125 740.453125 718.777344 C 739.105469 722.65625 739.453125 726.800781 739.445312 730.824219 C 739.378906 750.117188 739.574219 769.40625 739.417969 788.699219 C 739.324219 795.410156 739.640625 802.121094 739.34375 808.824219 C 731.878906 809.476562 724.335938 808.914062 716.835938 809.183594 C 715.746094 809.15625 713.585938 809.433594 713.808594 807.761719 C 713.742188 770.46875 713.761719 733.167969 713.78125 695.878906 C 713.925781 690.292969 713.375 684.679688 713.925781 679.125 C 722.234375 679.011719 730.53125 678.957031 738.835938 679.085938 C 739.566406 682.539062 738.871094 686.046875 739.03125 689.527344 C 744.613281 683.824219 751.710938 679.605469 759.472656 677.664062 Z M 759.460938 677.664062 " fill-opacity="1" fill-rule="nonzero"/></g><path fill="#211e1f" d="M 404.675781 692.25 C 401.09375 686.589844 396.046875 682.171875 389.660156 679.085938 C 383.265625 676.003906 375.707031 674.445312 367.167969 674.445312 C 359.519531 674.445312 352.753906 675.707031 347.039062 678.21875 C 341.335938 680.722656 336.601562 684.402344 332.964844 689.15625 C 329.449219 684.542969 324.726562 680.886719 318.894531 678.320312 C 313.058594 675.746094 306.15625 674.453125 298.386719 674.453125 C 289.859375 674.453125 282.261719 676.011719 275.804688 679.097656 C 269.351562 682.179688 264.265625 686.601562 260.6875 692.257812 C 257.105469 697.917969 255.304688 704.75 255.304688 712.574219 L 255.304688 775.871094 L 285.734375 775.871094 L 285.734375 721.484375 C 285.734375 709.105469 290.734375 703.105469 301.042969 703.105469 C 312.101562 703.105469 317.480469 710.007812 317.480469 724.195312 L 317.480469 775.878906 L 347.910156 775.878906 L 347.910156 724.195312 C 347.910156 717.394531 349.3125 712.113281 352.0625 708.523438 C 354.8125 704.933594 359.011719 703.105469 364.53125 703.105469 C 374.699219 703.105469 379.648438 709.125 379.648438 721.484375 L 379.648438 775.871094 L 410.074219 775.871094 L 410.074219 712.574219 C 410.074219 704.75 408.265625 697.898438 404.683594 692.257812 Z M 404.675781 692.25 " fill-opacity="1" fill-rule="nonzero"/><path fill="#211e1f" d="M 584.1875 635.648438 L 549.902344 635.648438 L 549.902344 674.242188 L 531.351562 674.242188 L 531.351562 702.617188 L 549.46875 702.617188 L 549.46875 775.839844 L 584.167969 775.839844 L 584.167969 702.617188 L 608.15625 702.617188 L 608.15625 674.242188 L 584.167969 674.242188 C 584.167969 674.242188 584.140625 638.695312 584.167969 635.648438 Z M 584.1875 635.648438 " fill-opacity="1" fill-rule="nonzero"/><path fill="#211e1f" d="M 640.402344 730.648438 C 640.402344 744.984375 646.613281 752.148438 659.042969 752.148438 C 665.714844 752.148438 670.734375 749.210938 674.121094 743.324219 L 703.777344 743.324219 C 697.785156 764.886719 682.824219 775.667969 658.875 775.667969 C 651.53125 775.667969 644.8125 774.464844 638.710938 772.085938 C 632.609375 769.695312 627.378906 766.296875 623.039062 761.886719 C 618.695312 757.472656 615.335938 752.222656 612.964844 746.089844 C 610.589844 739.960938 609.402344 733.113281 609.402344 725.507812 C 609.402344 717.902344 610.527344 710.589844 612.796875 704.285156 C 615.058594 697.980469 618.269531 692.628906 622.449219 688.214844 C 626.632812 683.804688 631.679688 680.40625 637.613281 678.015625 C 643.546875 675.625 650.238281 674.425781 657.695312 674.425781 C 665.152344 674.425781 671.648438 675.625 677.527344 678.015625 C 683.40625 680.40625 688.363281 683.867188 692.441406 688.402344 C 696.511719 692.933594 699.621094 698.480469 701.753906 705.035156 C 703.886719 711.589844 704.984375 718.972656 704.984375 727.179688 L 704.984375 730.667969 L 640.410156 730.667969 Z M 676.320312 711.355469 C 675.304688 706.707031 673.21875 702.964844 670.042969 700.152344 C 666.878906 697.335938 663.039062 695.921875 658.515625 695.921875 C 653.765625 695.921875 649.898438 697.28125 646.90625 699.957031 C 643.90625 702.652344 642.015625 706.445312 641.230469 711.355469 Z M 676.320312 711.355469 " fill-opacity="1" fill-rule="nonzero"/><path fill="#211e1f" d="M 490.523438 674.242188 L 490.523438 737.507812 C 486.460938 744.816406 478.847656 749.542969 469.730469 749.542969 C 455.941406 749.542969 445.542969 738.964844 445.542969 724.933594 C 445.542969 710.90625 455.941406 700.539062 469.730469 700.539062 C 470.699219 700.539062 471.632812 700.621094 472.546875 700.722656 L 472.546875 674.316406 C 471.613281 674.269531 470.671875 674.242188 469.730469 674.242188 C 440.03125 674.242188 416.765625 696.597656 416.765625 725.148438 C 416.765625 753.699219 440.023438 775.851562 469.730469 775.851562 C 477.160156 775.851562 484.183594 774.449219 490.523438 771.898438 L 490.523438 775.851562 L 520.046875 775.851562 L 520.046875 674.242188 Z M 490.523438 674.242188 " fill-opacity="1" fill-rule="nonzero"/><g clip-path="url(#458b37b825)"><path fill="#211e1f" d="M 951.839844 666.507812 C 962.101562 666.507812 970.4375 658.523438 970.4375 648.691406 C 970.4375 638.859375 962.269531 630.683594 951.839844 630.683594 C 941.410156 630.683594 933.4375 638.769531 933.4375 648.691406 C 933.4375 658.613281 941.6875 666.507812 951.839844 666.507812 Z M 951.839844 666.507812 " fill-opacity="1" fill-rule="nonzero"/></g><path fill="#211e1f" d="M 936.179688 674.25 L 967.289062 674.25 L 967.289062 775.839844 L 936.179688 775.839844 Z M 936.179688 674.25 " fill-opacity="1" fill-rule="nonzero"/><path fill="#211e1f" d="M 1053.820312 678.96875 C 1046.410156 675.808594 1038.101562 674.214844 1029.09375 674.214844 C 1020.085938 674.214844 1011.746094 675.808594 1004.277344 678.96875 C 996.8125 682.125 990.785156 686.851562 986.335938 693.027344 C 981.898438 699.199219 979.644531 706.898438 979.644531 715.917969 L 979.644531 775.851562 L 1010.867188 775.851562 L 1010.867188 723.097656 C 1010.867188 709.53125 1016.820312 702.929688 1029.085938 702.929688 C 1041.351562 702.929688 1047.109375 709.53125 1047.109375 723.097656 L 1047.109375 775.851562 L 1078.332031 775.851562 L 1078.332031 715.917969 C 1078.332031 706.917969 1076.078125 699.21875 1071.640625 693.027344 C 1067.199219 686.851562 1061.203125 682.125 1053.800781 678.96875 Z M 1053.820312 678.96875 " fill-opacity="1" fill-rule="nonzero"/><path fill="#211e1f" d="M 884.136719 673.492188 L 884.136719 701.316406 C 893.347656 704.839844 899.558594 713.664062 899.558594 724.574219 C 899.558594 738.910156 889.019531 749.710938 875.054688 749.710938 C 861.089844 749.710938 850.339844 738.902344 850.339844 724.574219 C 850.339844 713.71875 856.550781 704.921875 865.761719 701.359375 L 865.761719 673.53125 C 840.003906 677.648438 820.945312 698.683594 820.945312 724.796875 C 820.945312 753.835938 844.710938 776.597656 875.054688 776.597656 C 905.398438 776.597656 928.960938 753.84375 928.960938 724.796875 C 928.960938 698.628906 909.894531 677.5625 884.144531 673.503906 Z M 884.136719 673.492188 " fill-opacity="1" fill-rule="nonzero"/><path fill="#211e1f" d="M 1132.984375 635.945312 L 1098.699219 635.945312 L 1098.699219 674.535156 L 1080.148438 674.535156 L 1080.148438 702.910156 L 1098.265625 702.910156 L 1098.265625 776.136719 L 1132.964844 776.136719 L 1132.964844 702.910156 L 1156.953125 702.910156 L 1156.953125 674.535156 L 1132.964844 674.535156 C 1132.964844 674.535156 1132.9375 638.988281 1132.964844 635.945312 Z M 1132.984375 635.945312 " fill-opacity="1" fill-rule="nonzero"/><path fill="#090808" d="M 1165.183594 691.070312 C 1169.84375 679.246094 1181.796875 671.730469 1194.007812 669.773438 C 1205.367188 668.121094 1217.320312 669.144531 1227.933594 673.695312 C 1233.710938 676.550781 1239.285156 679.9375 1244.109375 684.246094 C 1238.34375 690.679688 1232.871094 697.382812 1227.164062 703.871094 C 1221.738281 699.007812 1215.851562 693.894531 1208.355469 692.925781 C 1203.308594 692.269531 1197.078125 692.5625 1193.683594 696.902344 C 1191.847656 699.855469 1193.746094 703.675781 1196.757812 704.921875 C 1207.683594 710.039062 1220.328125 710.589844 1230.765625 716.894531 C 1237.308594 720.753906 1242.929688 727.039062 1244.203125 734.730469 C 1246.011719 743.746094 1244.121094 753.734375 1238.195312 760.914062 C 1233.507812 766.730469 1226.933594 770.886719 1219.828125 773.042969 C 1206.816406 777.050781 1192.445312 776.523438 1179.792969 771.53125 C 1172.363281 768.640625 1166.125 763.59375 1159.792969 758.902344 C 1159.535156 758.367188 1159.039062 757.296875 1158.789062 756.769531 C 1160.707031 755.414062 1162.285156 753.660156 1163.789062 751.871094 C 1167.667969 747.164062 1172.578125 743.351562 1175.917969 738.179688 C 1182.976562 744.542969 1191.199219 750.714844 1201.066406 751.316406 C 1206.1875 751.785156 1211.882812 749.894531 1214.734375 745.417969 C 1216.109375 741.226562 1211.734375 738.457031 1208.449219 737.128906 C 1195.6875 732.625 1180.910156 731.15625 1170.769531 721.335938 C 1162.535156 713.746094 1161.871094 701.148438 1165.210938 691.085938 Z M 1165.183594 691.070312 " fill-opacity="1" fill-rule="nonzero"/><path fill="#000000" d="M 1003.496094 819.460938 C 1006.664062 819.460938 1009.230469 816.996094 1009.230469 813.960938 C 1009.230469 810.921875 1006.703125 808.40625 1003.496094 808.40625 C 1000.285156 808.40625 997.820312 810.902344 997.820312 813.960938 C 997.820312 817.015625 1000.367188 819.460938 1003.496094 819.460938 Z M 1003.496094 819.460938 " fill-opacity="1" fill-rule="nonzero"/><g clip-path="url(#9f2c2939a2)"><path fill="#000000" d="M 998.667969 821.839844 L 1008.269531 821.839844 L 1008.269531 853.1875 L 998.667969 853.1875 Z M 998.667969 821.839844 " fill-opacity="1" fill-rule="nonzero"/></g><g clip-path="url(#62384c4e06)"><path fill="#000000" d="M 1064.007812 810.953125 L 1064.847656 810.953125 L 1064.847656 802.621094 L 1063.722656 802.621094 C 1053.929688 802.621094 1048.53125 807.671875 1048.53125 816.84375 L 1048.53125 821.839844 L 1043.5625 821.839844 L 1043.5625 830.5625 L 1048.53125 830.5625 L 1048.53125 853.199219 L 1058.058594 853.199219 L 1058.058594 830.5625 L 1064.640625 830.5625 L 1064.640625 821.839844 L 1058.058594 821.839844 L 1058.058594 817.199219 C 1058.058594 813.121094 1060.113281 810.964844 1064.007812 810.964844 Z M 1064.007812 810.953125 " fill-opacity="1" fill-rule="nonzero"/></g><g clip-path="url(#29c3e0202e)"><path fill="#000000" d="M 1034.964844 823.304688 C 1032.671875 822.332031 1030.117188 821.839844 1027.335938 821.839844 C 1024.554688 821.839844 1021.980469 822.332031 1019.679688 823.304688 C 1017.378906 824.273438 1015.519531 825.738281 1014.136719 827.636719 C 1012.765625 829.539062 1012.074219 831.921875 1012.074219 834.703125 L 1012.074219 853.1875 L 1021.703125 853.1875 L 1021.703125 836.910156 C 1021.703125 832.71875 1023.542969 830.683594 1027.324219 830.683594 C 1031.109375 830.683594 1032.886719 832.71875 1032.886719 836.910156 L 1032.886719 853.1875 L 1042.519531 853.1875 L 1042.519531 834.703125 C 1042.519531 831.921875 1041.824219 829.550781 1040.453125 827.636719 C 1039.082031 825.738281 1037.234375 824.273438 1034.953125 823.304688 Z M 1034.964844 823.304688 " fill-opacity="1" fill-rule="nonzero"/></g><g clip-path="url(#7f6f568874)"><path fill="#000000" d="M 1146.800781 827.394531 C 1145.695312 825.644531 1144.140625 824.285156 1142.167969 823.335938 C 1140.195312 822.382812 1137.863281 821.902344 1135.226562 821.902344 C 1132.867188 821.902344 1130.78125 822.292969 1129.011719 823.070312 C 1127.253906 823.835938 1125.789062 824.980469 1124.664062 826.441406 C 1123.582031 825.019531 1122.121094 823.898438 1120.320312 823.097656 C 1118.519531 822.300781 1116.394531 821.902344 1113.992188 821.902344 C 1111.363281 821.902344 1109.023438 822.382812 1107.019531 823.335938 C 1105.027344 824.285156 1103.460938 825.644531 1102.359375 827.394531 C 1101.253906 829.140625 1100.703125 831.246094 1100.703125 833.660156 L 1100.703125 853.1875 L 1110.085938 853.1875 L 1110.085938 836.410156 C 1110.085938 832.597656 1111.628906 830.734375 1114.808594 830.734375 C 1118.226562 830.734375 1119.882812 832.863281 1119.882812 837.238281 L 1119.882812 853.175781 L 1129.265625 853.175781 L 1129.265625 837.238281 C 1129.265625 835.144531 1129.695312 833.507812 1130.542969 832.402344 C 1131.394531 831.296875 1132.691406 830.734375 1134.386719 830.734375 C 1137.527344 830.734375 1139.050781 832.597656 1139.050781 836.410156 L 1139.050781 853.1875 L 1148.4375 853.1875 L 1148.4375 833.660156 C 1148.4375 831.246094 1147.875 829.132812 1146.769531 827.394531 Z M 1146.800781 827.394531 " fill-opacity="1" fill-rule="nonzero"/></g><g clip-path="url(#c3fc67ec9d)"><path fill="#000000" d="M 1202.191406 809.929688 L 1191.609375 809.929688 L 1191.609375 821.832031 L 1185.886719 821.832031 L 1185.886719 830.582031 L 1191.476562 830.582031 L 1191.476562 853.175781 L 1202.183594 853.175781 L 1202.183594 830.582031 L 1209.582031 830.582031 L 1209.582031 821.832031 L 1202.183594 821.832031 C 1202.183594 821.832031 1202.183594 810.859375 1202.183594 809.929688 Z M 1202.191406 809.929688 " fill-opacity="1" fill-rule="nonzero"/></g><g clip-path="url(#837813f12c)"><path fill="#000000" d="M 1219.53125 839.242188 C 1219.53125 843.667969 1221.441406 845.878906 1225.289062 845.878906 C 1227.34375 845.878906 1228.894531 844.96875 1229.9375 843.15625 L 1239.089844 843.15625 C 1237.238281 849.8125 1232.628906 853.136719 1225.238281 853.136719 C 1222.964844 853.136719 1220.902344 852.769531 1219.011719 852.03125 C 1217.128906 851.296875 1215.511719 850.242188 1214.175781 848.882812 C 1212.835938 847.523438 1211.792969 845.898438 1211.066406 844.007812 C 1210.339844 842.113281 1209.960938 840 1209.960938 837.65625 C 1209.960938 835.316406 1210.308594 833.058594 1211.003906 831.113281 C 1211.699219 829.171875 1212.691406 827.515625 1213.980469 826.15625 C 1215.269531 824.796875 1216.832031 823.742188 1218.664062 823.007812 C 1220.492188 822.269531 1222.558594 821.902344 1224.859375 821.902344 C 1227.160156 821.902344 1229.164062 822.269531 1230.972656 823.007812 C 1232.78125 823.742188 1234.316406 824.816406 1235.574219 826.207031 C 1236.828125 827.609375 1237.792969 829.316406 1238.445312 831.339844 C 1239.101562 833.363281 1239.4375 835.632812 1239.4375 838.167969 L 1239.4375 839.242188 L 1219.511719 839.242188 Z M 1230.625 833.292969 C 1230.308594 831.859375 1229.664062 830.707031 1228.691406 829.835938 C 1227.722656 828.96875 1226.523438 828.527344 1225.132812 828.527344 C 1223.671875 828.527344 1222.476562 828.945312 1221.554688 829.773438 C 1220.636719 830.601562 1220.042969 831.777344 1219.808594 833.292969 L 1230.632812 833.292969 Z M 1230.625 833.292969 " fill-opacity="1" fill-rule="nonzero"/></g><g clip-path="url(#a1ca07bc1f)"><path fill="#000000" d="M 1084.375 821.382812 L 1084.375 829.96875 C 1087.214844 831.054688 1089.128906 833.78125 1089.128906 837.144531 C 1089.128906 841.574219 1085.878906 844.90625 1081.5625 844.90625 C 1077.25 844.90625 1073.9375 841.574219 1073.9375 837.144531 C 1073.9375 833.804688 1075.847656 831.082031 1078.691406 829.980469 L 1078.691406 821.390625 C 1070.734375 822.660156 1064.855469 829.152344 1064.855469 837.207031 C 1064.855469 846.164062 1072.1875 853.1875 1081.550781 853.1875 C 1090.917969 853.1875 1098.1875 846.164062 1098.1875 837.207031 C 1098.1875 829.132812 1092.308594 822.640625 1084.355469 821.382812 Z M 1084.375 821.382812 " fill-opacity="1" fill-rule="nonzero"/></g><g clip-path="url(#72d357d9b2)"><path fill="#000000" d="M 1173.851562 821.839844 L 1173.851562 841.359375 C 1172.59375 843.617188 1170.253906 845.070312 1167.429688 845.070312 C 1163.179688 845.070312 1159.96875 841.808594 1159.96875 837.484375 C 1159.96875 833.160156 1163.179688 829.960938 1167.429688 829.960938 C 1167.726562 829.960938 1168.015625 829.988281 1168.300781 830.011719 L 1168.300781 821.863281 C 1168.015625 821.851562 1167.71875 821.839844 1167.429688 821.839844 C 1158.269531 821.839844 1151.09375 828.742188 1151.09375 837.546875 C 1151.09375 846.347656 1158.269531 853.1875 1167.429688 853.1875 C 1169.722656 853.1875 1171.890625 852.757812 1173.851562 851.972656 L 1173.851562 853.1875 L 1182.960938 853.1875 L 1182.960938 821.839844 Z M 1173.851562 821.839844 " fill-opacity="1" fill-rule="nonzero"/></g><g transform="matrix(1, 0, 0, 1, 912, 805)"><g clip-path="url(#4bfc5e16f1)"><g fill="#000000" fill-opacity="1"><g transform="translate(1.126798, 46.213806)"><g><path d="M 5.234375 -41.484375 L 18.125 -41.484375 C 23.625 -41.484375 27.796875 -40.707031 30.640625 -39.15625 C 33.492188 -37.601562 34.921875 -34.875 34.921875 -30.96875 C 34.921875 -28.601562 34.367188 -26.609375 33.265625 -24.984375 C 32.160156 -23.359375 30.582031 -22.367188 28.53125 -22.015625 L 28.53125 -21.734375 C 29.882812 -21.421875 31.128906 -20.925781 32.265625 -20.25 C 33.410156 -19.570312 34.3125 -18.570312 34.96875 -17.25 C 35.625 -15.9375 35.953125 -14.195312 35.953125 -12.03125 C 35.953125 -8.269531 34.585938 -5.320312 31.859375 -3.1875 C 29.128906 -1.0625 25.421875 0 20.734375 0 L 5.234375 0 Z M 14 -25.03125 L 19.109375 -25.03125 C 21.671875 -25.03125 23.441406 -25.425781 24.421875 -26.21875 C 25.410156 -27.019531 25.90625 -28.210938 25.90625 -29.796875 C 25.90625 -31.390625 25.320312 -32.535156 24.15625 -33.234375 C 23 -33.929688 21.160156 -34.28125 18.640625 -34.28125 L 14 -34.28125 Z M 14 -18.0625 L 14 -7.265625 L 19.75 -7.265625 C 22.382812 -7.265625 24.222656 -7.773438 25.265625 -8.796875 C 26.316406 -9.828125 26.84375 -11.191406 26.84375 -12.890625 C 26.84375 -14.441406 26.304688 -15.691406 25.234375 -16.640625 C 24.171875 -17.585938 22.25 -18.0625 19.46875 -18.0625 Z M 14 -18.0625 "/></g></g></g><g clip-path="url(#f59814e339)"><g fill="#000000" fill-opacity="1"><g transform="translate(38.413701, 46.213806)"><g><path d="M 0 -31.71875 L 9.46875 -31.71875 L 15.453125 -13.890625 C 15.765625 -12.992188 15.992188 -12.097656 16.140625 -11.203125 C 16.296875 -10.316406 16.414062 -9.367188 16.5 -8.359375 L 16.671875 -8.359375 C 16.785156 -9.367188 16.9375 -10.316406 17.125 -11.203125 C 17.320312 -12.097656 17.578125 -12.992188 17.890625 -13.890625 L 23.765625 -31.71875 L 33.0625 -31.71875 L 19.640625 4.0625 C 18.398438 7.351562 16.632812 9.820312 14.34375 11.46875 C 12.0625 13.113281 9.410156 13.9375 6.390625 13.9375 C 5.378906 13.9375 4.523438 13.890625 3.828125 13.796875 C 3.128906 13.703125 2.507812 13.597656 1.96875 13.484375 L 1.96875 6.625 C 2.363281 6.695312 2.867188 6.769531 3.484375 6.84375 C 4.109375 6.925781 4.75 6.96875 5.40625 6.96875 C 7.226562 6.96875 8.660156 6.414062 9.703125 5.3125 C 10.742188 4.207031 11.535156 2.882812 12.078125 1.34375 L 12.609375 -0.234375 Z M 0 -31.71875 "/></g></g></g></g></g></g></svg>